<mxfile host="app.diagrams.net" modified="2023-04-20T15:11:02.827Z" agent="Mozilla/5.0 (Windows NT 10.0; Win64; x64) AppleWebKit/537.36 (KHTML, like Gecko) Chrome/111.0.0.0 Safari/537.36" etag="-nCpz36id7gEugsOCzVN" version="21.1.8" type="device">
  <diagram id="C5RBs43oDa-KdzZeNtuy" name="Page-1">
    <mxGraphModel dx="1050" dy="491" grid="1" gridSize="10" guides="1" tooltips="1" connect="1" arrows="1" fold="1" page="1" pageScale="1" pageWidth="827" pageHeight="1169" math="0" shadow="0">
      <root>
        <mxCell id="WIyWlLk6GJQsqaUBKTNV-0" />
        <mxCell id="WIyWlLk6GJQsqaUBKTNV-1" parent="WIyWlLk6GJQsqaUBKTNV-0" />
        <mxCell id="WIyWlLk6GJQsqaUBKTNV-3" value="SecondArrayWithIf" style="rounded=1;whiteSpace=wrap;html=1;fontSize=12;glass=0;strokeWidth=1;shadow=0;" parent="WIyWlLk6GJQsqaUBKTNV-1" vertex="1">
          <mxGeometry x="370" y="50" width="140" height="80" as="geometry" />
        </mxCell>
        <mxCell id="zIilh31JARnxuy-zzMAA-9" style="edgeStyle=orthogonalEdgeStyle;rounded=0;orthogonalLoop=1;jettySize=auto;html=1;entryX=0.926;entryY=1.024;entryDx=0;entryDy=0;entryPerimeter=0;" edge="1" parent="WIyWlLk6GJQsqaUBKTNV-1" source="WIyWlLk6GJQsqaUBKTNV-10" target="zIilh31JARnxuy-zzMAA-2">
          <mxGeometry relative="1" as="geometry" />
        </mxCell>
        <mxCell id="WIyWlLk6GJQsqaUBKTNV-10" value="if(array1[i].length&amp;lt;=3" style="rhombus;whiteSpace=wrap;html=1;shadow=0;fontFamily=Helvetica;fontSize=12;align=center;strokeWidth=1;spacing=6;spacingTop=-4;" parent="WIyWlLk6GJQsqaUBKTNV-1" vertex="1">
          <mxGeometry x="315" y="420" width="230" height="80" as="geometry" />
        </mxCell>
        <mxCell id="zIilh31JARnxuy-zzMAA-0" value="string[] array1&lt;br&gt;string array2&lt;br&gt;int count = 0" style="shape=parallelogram;perimeter=parallelogramPerimeter;whiteSpace=wrap;html=1;fixedSize=1;" vertex="1" parent="WIyWlLk6GJQsqaUBKTNV-1">
          <mxGeometry x="370" y="170" width="140" height="80" as="geometry" />
        </mxCell>
        <mxCell id="zIilh31JARnxuy-zzMAA-1" value="for ( int i; =0i&amp;lt;array1.length;&lt;br&gt;i++" style="shape=hexagon;perimeter=hexagonPerimeter2;whiteSpace=wrap;html=1;fixedSize=1;size=20;" vertex="1" parent="WIyWlLk6GJQsqaUBKTNV-1">
          <mxGeometry x="360" y="300" width="140" height="90" as="geometry" />
        </mxCell>
        <mxCell id="zIilh31JARnxuy-zzMAA-2" value="array2[count] = array1[i];&lt;br&gt;count++" style="rounded=0;whiteSpace=wrap;html=1;" vertex="1" parent="WIyWlLk6GJQsqaUBKTNV-1">
          <mxGeometry x="60" y="310" width="200" height="90" as="geometry" />
        </mxCell>
        <mxCell id="zIilh31JARnxuy-zzMAA-3" value="" style="endArrow=classic;html=1;rounded=0;exitX=0.5;exitY=1;exitDx=0;exitDy=0;entryX=0.5;entryY=0;entryDx=0;entryDy=0;" edge="1" parent="WIyWlLk6GJQsqaUBKTNV-1" source="WIyWlLk6GJQsqaUBKTNV-3" target="zIilh31JARnxuy-zzMAA-0">
          <mxGeometry width="50" height="50" relative="1" as="geometry">
            <mxPoint x="390" y="250" as="sourcePoint" />
            <mxPoint x="460" y="140" as="targetPoint" />
          </mxGeometry>
        </mxCell>
        <mxCell id="zIilh31JARnxuy-zzMAA-4" value="" style="endArrow=classic;html=1;rounded=0;exitX=0.5;exitY=1;exitDx=0;exitDy=0;entryX=0.569;entryY=-0.038;entryDx=0;entryDy=0;entryPerimeter=0;" edge="1" parent="WIyWlLk6GJQsqaUBKTNV-1" source="zIilh31JARnxuy-zzMAA-0" target="zIilh31JARnxuy-zzMAA-1">
          <mxGeometry width="50" height="50" relative="1" as="geometry">
            <mxPoint x="390" y="250" as="sourcePoint" />
            <mxPoint x="440" y="200" as="targetPoint" />
          </mxGeometry>
        </mxCell>
        <mxCell id="zIilh31JARnxuy-zzMAA-5" value="" style="endArrow=classic;html=1;rounded=0;exitX=0.5;exitY=1;exitDx=0;exitDy=0;entryX=0.5;entryY=0;entryDx=0;entryDy=0;" edge="1" parent="WIyWlLk6GJQsqaUBKTNV-1" source="zIilh31JARnxuy-zzMAA-1" target="WIyWlLk6GJQsqaUBKTNV-10">
          <mxGeometry width="50" height="50" relative="1" as="geometry">
            <mxPoint x="390" y="450" as="sourcePoint" />
            <mxPoint x="440" y="400" as="targetPoint" />
          </mxGeometry>
        </mxCell>
        <mxCell id="zIilh31JARnxuy-zzMAA-6" value="" style="endArrow=classic;html=1;rounded=0;exitX=1.002;exitY=0.402;exitDx=0;exitDy=0;entryX=0;entryY=0.5;entryDx=0;entryDy=0;exitPerimeter=0;" edge="1" parent="WIyWlLk6GJQsqaUBKTNV-1" source="zIilh31JARnxuy-zzMAA-2" target="zIilh31JARnxuy-zzMAA-1">
          <mxGeometry width="50" height="50" relative="1" as="geometry">
            <mxPoint x="390" y="150" as="sourcePoint" />
            <mxPoint x="440" y="100" as="targetPoint" />
          </mxGeometry>
        </mxCell>
        <mxCell id="zIilh31JARnxuy-zzMAA-7" value="" style="endArrow=classic;html=1;rounded=0;exitX=0;exitY=0.5;exitDx=0;exitDy=0;entryX=0;entryY=0.75;entryDx=0;entryDy=0;" edge="1" parent="WIyWlLk6GJQsqaUBKTNV-1" source="WIyWlLk6GJQsqaUBKTNV-10" target="zIilh31JARnxuy-zzMAA-1">
          <mxGeometry width="50" height="50" relative="1" as="geometry">
            <mxPoint x="390" y="450" as="sourcePoint" />
            <mxPoint x="315" y="370" as="targetPoint" />
          </mxGeometry>
        </mxCell>
        <mxCell id="zIilh31JARnxuy-zzMAA-10" value="Yes" style="text;html=1;align=center;verticalAlign=middle;resizable=0;points=[];autosize=1;strokeColor=none;fillColor=none;" vertex="1" parent="WIyWlLk6GJQsqaUBKTNV-1">
          <mxGeometry x="240" y="458" width="40" height="30" as="geometry" />
        </mxCell>
        <mxCell id="zIilh31JARnxuy-zzMAA-11" value="No" style="text;html=1;align=center;verticalAlign=middle;resizable=0;points=[];autosize=1;strokeColor=none;fillColor=none;" vertex="1" parent="WIyWlLk6GJQsqaUBKTNV-1">
          <mxGeometry x="330" y="410" width="40" height="30" as="geometry" />
        </mxCell>
      </root>
    </mxGraphModel>
  </diagram>
</mxfile>
